<?xml version="1.0" encoding="UTF-8"?> <svg xmlns="http://www.w3.org/2000/svg" width="138" height="35" viewBox="0 0 138 35" fill="none"><g clip-path="url(#clip0_2190_15305)"><path d="M31.0457 34.354V22.3477C31.0457 19.8377 30.0436 18.5826 28.0395 18.5824C26.0353 18.5821 25.0327 19.8373 25.0317 22.3477V34.354H19.1239V22.3477C19.1239 19.8377 18.1393 18.5826 16.1701 18.5824C14.1653 18.5824 13.1633 19.8375 13.1641 22.3477V34.354H7.25635V21.6392C7.25635 19.0195 8.13551 17.037 9.89383 15.6915C11.4414 14.4906 13.5338 13.8898 16.171 13.8892C18.8443 13.8892 20.8135 14.5987 22.0787 16.0179C23.1685 14.5987 25.1556 13.8892 28.0401 13.8892C30.6775 13.8892 32.7696 14.4899 34.3166 15.6915C36.0747 17.0357 36.9539 19.0183 36.9541 21.6392V34.354H31.0457Z" fill="#F98012"></path><path d="M103.455 34.2981V0H109.369V34.2981H103.455Z" fill="#F98012"></path><path d="M95.9194 34.2981V32.2774C95.3905 33.0051 94.4931 33.5877 93.2271 34.0249C92.0997 34.424 91.0261 34.6242 90.0061 34.6254C87.1905 34.6254 84.9295 33.624 83.2232 31.6212C81.5168 29.6183 80.6631 27.1426 80.6621 24.194C80.6621 21.2824 81.4932 18.8383 83.1705 16.8759C84.6547 15.1397 87.0684 13.9268 89.8481 13.9268C92.9795 13.9268 94.8088 15.1432 95.9194 16.5479V0H101.675V34.2981H95.9194ZM95.9194 22.8838C95.9194 21.7916 95.4176 20.7446 94.4141 19.7428C93.4106 18.741 92.3813 18.2401 91.3262 18.2404C89.8132 18.2404 88.6166 18.8777 87.7365 20.1523C86.9622 21.2823 86.5752 22.6658 86.5754 24.3027C86.5754 25.9057 86.9624 27.2708 87.7365 28.3983C88.6164 29.7101 89.813 30.3655 91.3262 30.3645C92.241 30.3645 93.2352 29.9186 94.3087 29.0268C95.3823 28.135 95.9192 27.2157 95.9194 26.2689V22.8838Z" fill="#F98012"></path><path d="M69.5248 34.8441C66.5325 34.8441 64.0601 33.8608 62.1075 31.8943C60.1549 29.9278 59.178 27.397 59.1768 24.3018C59.1768 21.2085 60.1537 18.6783 62.1075 16.7112C64.0613 14.744 66.5337 13.7609 69.5248 13.7617C72.5152 13.7617 74.9962 14.7449 76.9679 16.7112C78.9396 18.6774 79.9252 21.2077 79.9246 24.3018C79.9246 27.398 78.939 29.9289 76.9679 31.8943C74.9969 33.8598 72.5158 34.843 69.5248 34.8441ZM69.5248 18.678C68.0992 18.678 67.0036 19.2361 66.238 20.3524C65.4725 21.4687 65.0903 22.7951 65.0915 24.3314C65.0915 25.8676 65.4474 27.1664 66.1592 28.2279C66.9783 29.4355 68.1004 30.0387 69.5254 30.0375C70.9503 30.0362 72.0721 29.433 72.8907 28.2279C73.6382 27.1672 74.0119 25.8684 74.0119 24.3314C74.0119 22.7944 73.656 21.4956 72.9443 20.435C72.1239 19.2636 70.984 18.678 69.5248 18.678Z" fill="#F98012"></path><path d="M48.145 34.8441C45.1535 34.8441 42.6811 33.8609 40.7277 31.8944C38.7743 29.9279 37.7976 27.397 37.7979 24.3018C37.7979 21.2085 38.7745 18.6783 40.7277 16.7112C42.6809 14.7441 45.1533 13.7612 48.145 13.7627C51.1354 13.7627 53.6167 14.7458 55.589 16.7121C57.5613 18.6784 58.5465 21.2086 58.5444 24.3028C58.5444 27.399 57.5592 29.9299 55.5887 31.8953C53.6183 33.8608 51.137 34.8437 48.145 34.8441ZM48.145 18.678C46.7204 18.678 45.6248 19.2361 44.8582 20.3524C44.0916 21.4688 43.709 22.7951 43.7102 24.3314C43.7102 25.8676 44.0661 27.1664 44.7778 28.2279C45.597 29.4356 46.7194 30.0388 48.145 30.0375C49.5705 30.0362 50.6922 29.433 51.5099 28.2279C52.2576 27.1672 52.6317 25.8684 52.6321 24.3314C52.6325 22.7945 52.2763 21.4956 51.5635 20.435C50.7446 19.2637 49.605 18.678 48.145 18.678Z" fill="#F98012"></path><path d="M116.371 26.1607C116.497 27.6171 118.327 30.7477 121.335 30.7477C124.262 30.7477 125.647 28.9992 125.716 28.2903L131.945 28.2358C131.266 30.3857 128.504 34.9541 121.226 34.9541C118.199 34.9541 115.429 33.9794 113.44 32.0321C111.45 30.0848 110.458 27.5453 110.458 24.4131C110.458 21.173 111.452 18.5972 113.44 16.6857C115.428 14.7743 118.006 13.8186 121.175 13.8188C124.623 13.8188 127.315 15.0021 129.251 17.3688C131.046 19.5531 131.944 22.484 131.944 26.1616L116.371 26.1607ZM126.032 22.3918C125.785 21.0806 125.257 20.0065 124.448 19.1695C123.532 18.2599 122.476 17.8048 121.281 17.8041C120.048 17.8041 119.019 18.241 118.192 19.1147C117.366 19.9884 116.812 21.0806 116.53 22.3912L126.032 22.3918Z" fill="#F98012"></path><path d="M18.7309 12.9648L24.5997 8.53217L24.5242 8.26123C13.9377 9.60079 9.12017 10.5525 0 16.0217L0.0843529 16.2706L0.809728 16.2775C0.742428 17.0336 0.627014 18.8999 0.775621 21.7066C-0.236615 24.7367 0.749737 26.7952 1.67579 29.0333C1.82196 26.702 1.80674 24.1529 1.11547 21.6153C0.971734 18.8281 1.0905 16.9942 1.15536 16.281L7.20168 16.3408C7.20168 16.3408 7.16178 18.2311 7.38074 20.0082C12.7839 21.9722 18.2172 20.0013 21.0998 15.1597C20.3014 14.2313 18.7309 12.9648 18.7309 12.9648Z" fill="#545454"></path><path d="M133.53 34.9999H133.004V32.2761H132.109V31.8066H134.434V32.2761H133.53V34.9999ZM136.099 34.9999L135.238 32.5243H135.204L135.23 33.0955V34.9999H134.72V31.8066H135.521L136.36 34.2826L137.229 31.8066H138V34.9999H137.456V33.1412L137.482 32.5341H137.448L136.545 35.0012L136.099 34.9999Z" fill="#F98012"></path></g><defs><clipPath id="clip0_2190_15305"><rect width="138" height="35" fill="white"></rect></clipPath></defs></svg> 