<?xml version="1.0" encoding="UTF-8"?> <svg xmlns="http://www.w3.org/2000/svg" width="165" height="40" viewBox="0 0 165 40" fill="none"><g clip-path="url(#clip0_2190_22960)"><path d="M37.1201 39.2624V25.541C37.1201 22.6723 35.922 21.2379 33.5257 21.2377C31.1294 21.2374 29.9306 22.6719 29.9294 25.541V39.2624H22.8658V25.541C22.8658 22.6723 21.6885 21.2379 19.334 21.2377C16.9369 21.2377 15.7389 22.6721 15.7399 25.541V39.2624H8.67627V24.7312C8.67627 21.7373 9.72744 19.4715 11.8298 17.9339C13.6802 16.5614 16.1819 15.8747 19.3351 15.874C22.5314 15.874 24.886 16.685 26.3987 18.3069C27.7017 16.685 30.0776 15.874 33.5264 15.874C36.6798 15.874 39.1813 16.5606 41.0309 17.9339C43.133 19.4701 44.1842 21.7359 44.1845 24.7312V39.2624H37.1201Z" fill="white"></path><path d="M123.696 39.1988V0.000976562H130.768V39.1988H123.696Z" fill="white"></path><path d="M114.686 39.1988V36.8894C114.054 37.7211 112.981 38.3869 111.467 38.8866C110.119 39.3427 108.836 39.5714 107.616 39.5729C104.25 39.5729 101.546 38.4284 99.506 36.1395C97.4658 33.8505 96.4451 31.0211 96.4438 27.6513C96.4438 24.3237 97.4375 21.5305 99.443 19.2877C101.218 17.3035 104.104 15.9173 107.427 15.9173C111.171 15.9173 113.358 17.3075 114.686 18.9129V0.000976562H121.568V39.1988H114.686ZM114.686 26.1539C114.686 24.9057 114.086 23.7091 112.886 22.5642C111.687 21.4192 110.456 20.8469 109.194 20.8471C107.385 20.8471 105.955 21.5755 104.902 23.0322C103.977 24.3236 103.514 25.9047 103.514 27.7755C103.514 29.6074 103.977 31.1677 104.902 32.4562C105.954 33.9554 107.385 34.7044 109.194 34.7032C110.288 34.7032 111.477 34.1936 112.76 33.1744C114.044 32.1553 114.686 31.1046 114.686 30.0226V26.1539Z" fill="white"></path><path d="M83.1275 39.8226C79.5498 39.8226 76.5937 38.6989 74.259 36.4515C71.9244 34.2041 70.7563 31.3117 70.7549 27.7743C70.7549 24.2391 71.9229 21.3474 74.259 19.0993C76.5951 16.8511 79.5513 15.7276 83.1275 15.7285C86.703 15.7285 89.6695 16.8521 92.0269 19.0993C94.3844 21.3465 95.5628 24.2382 95.562 27.7743C95.562 31.3129 94.3837 34.2053 92.0269 36.4515C89.6702 38.6977 86.7037 39.8214 83.1275 39.8226ZM83.1275 21.3471C81.423 21.3471 80.1131 21.985 79.1977 23.2607C78.2824 24.5365 77.8254 26.0523 77.8269 27.8082C77.8269 29.5638 78.2524 31.0481 79.1034 32.2613C80.0829 33.6414 81.4245 34.3308 83.1282 34.3294C84.832 34.3279 86.1732 33.6386 87.152 32.2613C88.0457 31.0491 88.4926 29.5647 88.4926 27.8082C88.4926 26.0516 88.0671 24.5672 87.216 23.3551C86.2351 22.0164 84.8723 21.3471 83.1275 21.3471Z" fill="white"></path><path d="M57.5644 39.8225C53.9877 39.8225 51.0315 38.6988 48.6959 36.4514C46.3603 34.204 45.1926 31.3116 45.1929 27.7742C45.1929 24.239 46.3606 21.3473 48.6959 19.0992C51.0313 16.851 53.9874 15.7278 57.5644 15.7295C61.1399 15.7295 64.1067 16.8531 66.4649 19.1003C68.8231 21.3475 70.001 24.2391 69.9986 27.7753C69.9986 31.3139 68.8206 34.2062 66.4646 36.4525C64.1086 38.6987 61.1419 39.8221 57.5644 39.8225ZM57.5644 21.347C55.8611 21.347 54.5512 21.9849 53.6346 23.2606C52.7181 24.5364 52.2605 26.0522 52.262 27.8081C52.262 29.5637 52.6875 31.048 53.5385 32.2611C54.5179 33.6413 55.8599 34.3307 57.5644 34.3293C59.2689 34.3278 60.61 33.6385 61.5878 32.2611C62.4818 31.049 62.929 29.5646 62.9295 27.8081C62.93 26.0515 62.5041 24.5671 61.6518 23.355C60.6726 22.0163 59.3102 21.347 57.5644 21.347Z" fill="white"></path><path d="M139.139 29.8989C139.29 31.5634 141.477 35.1412 145.073 35.1412C148.574 35.1412 150.23 33.1429 150.312 32.3328L157.76 32.2705C156.948 34.7275 153.646 39.9486 144.943 39.9486C141.324 39.9486 138.013 38.8346 135.634 36.6091C133.255 34.3836 132.068 31.4813 132.068 27.9017C132.068 24.1987 133.257 21.2549 135.634 19.0704C138.011 16.8859 141.094 15.7937 144.882 15.7939C149.006 15.7939 152.224 17.1463 154.539 19.851C156.685 22.3473 157.759 25.697 157.759 29.9L139.139 29.8989ZM150.69 25.5916C150.395 24.0931 149.764 22.8655 148.796 21.909C147.7 20.8694 146.438 20.3493 145.01 20.3486C143.536 20.3486 142.305 20.8478 141.317 21.8464C140.328 22.8449 139.666 24.0931 139.329 25.5909L150.69 25.5916Z" fill="white"></path><path d="M22.3957 14.8179L29.4127 9.75203L29.3224 9.44238C16.6647 10.9733 10.9046 12.061 0 18.3115L0.100857 18.5959L0.968153 18.6038C0.887686 19.4679 0.749691 21.6009 0.927373 24.8086C-0.282909 28.2715 0.896424 30.6241 2.00367 33.1819C2.17844 30.5175 2.16023 27.6043 1.33371 24.7041C1.16186 21.5188 1.30386 19.4229 1.38141 18.6078L8.6107 18.6762C8.6107 18.6762 8.563 20.8365 8.82479 22.8675C15.2851 25.1121 21.7814 22.8596 25.2281 17.3264C24.2734 16.2653 22.3957 14.8179 22.3957 14.8179Z" fill="white"></path><path d="M159.656 40.001H159.027V36.888H157.957V36.3516H160.736V36.888H159.656V40.001ZM162.728 40.001L161.698 37.1718H161.658L161.689 37.8245V40.001H161.079V36.3516H162.037L163.04 39.1812L164.079 36.3516H165V40.001H164.35V37.8767L164.381 37.1829H164.34L163.26 40.0025L162.728 40.001Z" fill="white"></path></g><defs><clipPath id="clip0_2190_22960"><rect width="165" height="40" fill="white" transform="translate(0 0.000976562)"></rect></clipPath></defs></svg> 