<svg fill="none" height="19" viewBox="0 0 22 19" width="22" xmlns="http://www.w3.org/2000/svg"><path clip-rule="evenodd" d="m13.8489 2.65933c-.4568-.00019-.908.10106-1.321.29642-.4129.19537-.7773.47998-1.067.8333-.2896.35332-.4971.76653-.6076 1.20981s-.1212.90556-.0314 1.35347c.031.1552.0246.31553-.0184.4678-.0431.15227-.1218.29214-.2294.40811-.1077.11598-.2414.20474-.39.25899-.1487.05426-.3081.07246-.46516.0531-2.15027-.26414-4.17728-1.14804-5.834-2.544.031.602.24 1.242.693 1.912l.679 1.004-1.115.475-.215.092c.16.183.352.37.567.555.28741.24601.59147.47188.91.676l.011.007h.001l1.548.93897-1.62.81c-.08.04-.16.076-.24.108.34834.2895.73208.5334 1.142.726l1.39.657-1.164 1.004c-.635.548-1.274.957-2.103 1.173 1.27143.6773 2.69044 1.0301 4.131 1.027 4.80596 0 8.67596-3.835 8.67596-8.53397v-.52l.425-.299c.664-.466 1.133-1.096 1.469-1.817h-2.16l-.272-.57c-.2504-.52733-.6453-.9728-1.1388-1.28469-.4935-.31188-1.0654-.47739-1.6492-.47731zm-11.27996 7.3c-.09437.10807-.16437.23517-.20527.37267-.04089.1376-.05171.2823-.03173.4243.113.801.592 1.491 1.122 2.018.144.143.298.28.46.411l-.075.02c-.481.12-1.13.145-2.211.04-.20414-.02-.40951.0232-.58825.1239-.178739.1006-.322212.2537-.410964.4387-.088751.1849-.118488.3926-.085178.595s.128055.3897.27139.5364c1.000772 1.023 2.196292 1.8351 3.516022 2.3884 1.31973.5534 2.73693.8369 4.16798.8336 5.71296 0 10.39896-4.436 10.66396-10.03397 1.29-1.083 1.935-2.55 2.283-3.883.0387-.14794.043-.3028.0124-.45264-.0305-.14985-.095-.2907-.1885-.41171-.0935-.12102-.2135-.21898-.3507-.28636-.1373-.06738-.2882-.10237-.4412-.10229h-2.353c-.5755-.89367-1.4166-1.58456-2.4051-1.97556-.9884-.39101-2.0745-.462488-3.1057-.204392-1.0312.258092-1.9556.832792-2.64328 1.643332-.68771.81054-1.10418 1.81619-1.19088 2.87562-1.84335-.47985-3.49267-1.51919-4.721-2.975-.10878-.12861-.24829-.22767-.40558-.28797-.15729-.06029-.32727-.07988-.49415-.05694-.16688.02295-.32526.08767-.46045.18818-.13518.10051-.24278.23353-.31282.38673-.606 1.322-.722 2.846-.046 4.396l-.234.1c-.22393.09542-.40536.26923-.5103.48886-.10493.21963-.12616.46999-.0597.70414.186.652.604 1.228 1.032 1.685z" fill="#fff" fill-rule="evenodd"></path></svg>

