<svg fill="none" height="20" viewBox="0 0 20 20" width="20" xmlns="http://www.w3.org/2000/svg"><path clip-rule="evenodd" d="m0 4.00098c0-1.06087.421427-2.07829 1.17157-2.82843.75015-.750146 1.76756-1.17157344 2.82843-1.17157344h12c1.0609 0 2.0783.42142744 2.8284 1.17157344.7502.75014 1.1716 1.76756 1.1716 2.82843v12.00002c0 1.0608-.4214 2.0783-1.1716 2.8284-.7501.7501-1.7675 1.1716-2.8284 1.1716h-12c-1.06087 0-2.07828-.4215-2.82843-1.1716-.750143-.7501-1.17157-1.7676-1.17157-2.8284zm4-2c-.53043 0-1.03914.21071-1.41421.58578-.37508.37508-.58579.88378-.58579 1.41422v12.00002c0 .5304.21071 1.0391.58579 1.4142.37507.3751.88378.5858 1.41421.5858h6v-7h-1c-.26522 0-.51957-.1054-.70711-.2929-.18753-.1876-.29289-.4419-.29289-.7071 0-.26524.10536-.51959.29289-.70713.18754-.18754.44189-.29289.70711-.29289h1v-1.5c0-.92826.3687-1.8185 1.0251-2.47488.6564-.65637 1.5466-1.02512 2.4749-1.02512h.6c.2652 0 .5196.10535.7071.29289s.2929.44189.2929.70711c0 .26521-.1054.51957-.2929.7071-.1875.18754-.4419.2929-.7071.2929h-.6c-.197 0-.392.03879-.574.11418-.182.07538-.3474.18587-.4867.32516-.1392.13928-.2497.30464-.3251.48663s-.1142.37704-.1142.57403v1.5h2.1c.2652 0 .5196.10535.7071.29289s.2929.44189.2929.70713c0 .2652-.1054.5195-.2929.7071-.1875.1875-.4419.2929-.7071.2929h-2.1v7h4c.5304 0 1.0391-.2107 1.4142-.5858s.5858-.8838.5858-1.4142v-12.00002c0-.53044-.2107-1.03914-.5858-1.41422-.3751-.37507-.8838-.58578-1.4142-.58578z" fill="#fff" fill-rule="evenodd"></path></svg>

