<svg fill="none" height="20" viewBox="0 0 20 20" width="20" xmlns="http://www.w3.org/2000/svg"><path clip-rule="evenodd" d="m4 .00097656c-1.06087 0-2.07828.42142744-2.82843 1.17157344-.750143.75014-1.17157 1.76756-1.17157 2.82843v12.00002c0 1.0608.421427 2.0783 1.17157 2.8284.75015.7501 1.76756 1.1716 2.82843 1.1716h12c1.0609 0 2.0783-.4215 2.8284-1.1716.7502-.7501 1.1716-1.7676 1.1716-2.8284v-12.00002c0-1.06087-.4214-2.07829-1.1716-2.82843-.7501-.750146-1.7675-1.17157344-2.8284-1.17157344zm-2 4.00000344c0-.53044.21071-1.03914.58579-1.41422.37507-.37507.88378-.58578 1.41421-.58578h12c.5304 0 1.0391.21071 1.4142.58578.3751.37508.5858.88378.5858 1.41422v12.00002c0 .5304-.2107 1.0391-.5858 1.4142s-.8838.5858-1.4142.5858h-12c-.53043 0-1.03914-.2107-1.41421-.5858-.37508-.3751-.58579-.8838-.58579-1.4142zm5 5c0-.26522-.10536-.51957-.29289-.70711-.18754-.18754-.44189-.29289-.70711-.29289s-.51957.10535-.70711.29289c-.18753.18754-.29289.44189-.29289.70711v6.00002c0 .2652.10536.5195.29289.7071.18754.1875.44189.2929.70711.2929s.51957-.1054.70711-.2929c.18753-.1876.29289-.4419.29289-.7071zm.5-3.5c0 .39782-.15804.77935-.43934 1.06066-.2813.2813-.66284.43934-1.06066.43934s-.77936-.15804-1.06066-.43934c-.2813-.28131-.43934-.66284-.43934-1.06066 0-.39783.15804-.77936.43934-1.06066.2813-.28131.66284-.43934 1.06066-.43934s.77936.15803 1.06066.43934c.2813.2813.43934.66283.43934 1.06066zm2.5 2.5c.34 0 .64.17.82.428.5154-.2809 1.093-.42805 1.68-.428 2.16 0 3.5 1.926 3.5 3.57102v3.429c0 .2652-.1054.5195-.2929.7071-.1875.1875-.4419.2929-.7071.2929s-.5196-.1054-.7071-.2929c-.1875-.1876-.2929-.4419-.2929-.7071v-3.43c0-.768-.66-1.57102-1.5-1.57102-.524 0-1.103.28502-1.5.96302v4.038c0 .2652-.1054.5195-.2929.7071-.1875.1875-.4419.2929-.7071.2929-.26522 0-.51957-.1054-.70711-.2929-.18753-.1876-.29289-.4419-.29289-.7071v-6.00002c0-.26522.10536-.51957.29289-.70711.18754-.18754.44189-.29289.70711-.29289z" fill="#fff" fill-rule="evenodd"></path></svg>

