<svg fill="none" height="20" viewBox="0 0 23 20" width="23" xmlns="http://www.w3.org/2000/svg"><path d="m3.20091 17.3398-.19612.9806zm16.59819 0 .1961.9806zm.1139-14.53739.2096-.9778zm-16.82604 0 .20952.97781zm6.41304 4.19721.5145-.85749c-.30893-.18536-.69369-.19022-1.0072-.01271-.31351.1775-.5073.50993-.5073.8702zm0 5.99998h-1c0 .3603.19379.6927.5073.8702s.69827.1727 1.0072-.0127zm5-2.99998.5145.85748c.3012-.1807.4855-.5062.4855-.85748 0-.35126-.1843-.67677-.4855-.85749zm-14-5.23416v10.49954h2v-10.49954zm22 10.49954v-10.49954h-2v10.49954zm-19.49521 3.0554c5.60794 1.1216 11.38251 1.1216 16.99041 0l-.3922-1.9612c-5.349 1.0698-10.85696 1.0698-16.20598 0zm17.11781-16.49579c-5.6839-1.21797-11.5613-1.21797-17.24517 0l.41905 1.95561c5.40764-1.15878 10.99942-1.15878 16.40702 0zm2.3774 2.94085c0-1.4182-.9907-2.64369-2.3774-2.94085l-.4191 1.95561c.4646.09955.7965.51011.7965.98524zm-2 10.49954c0 .5319-.3754.9899-.897 1.0942l.3922 1.9612c1.4564-.2913 2.5048-1.5701 2.5048-3.0554zm-20 0c0 1.4853 1.04836 2.7641 2.50479 3.0554l.39223-1.9612c-.52158-.1043-.89702-.5623-.89702-1.0942zm2-10.49954c0-.47513.33191-.88569.79648-.98524l-.41905-1.95561c-1.38672.29716-2.37743 1.52265-2.37743 2.94085zm6 2.23416v5.99998h2v-5.99998zm1.5145 6.85748 5-3-1.029-1.71497-5 2.99997zm5-4.71497-5-3-1.029 1.71498 5 2.99999z" fill="#fff"></path></svg>

