<?xml version="1.0" encoding="UTF-8"?> <svg xmlns="http://www.w3.org/2000/svg" width="226" height="229" viewBox="0 0 226 229" fill="none"><path d="M53.1108 185.941L1.61841 98.0422L109.314 19.3916L171.811 99.2534L53.1108 185.941Z" stroke="#282828"></path><path d="M51.6128 120.738L41.0356 131.047L45.1338 133.937L42.6359 141.317L49.31 142.996L50.9883 133.937L54.6571 134.366L51.6128 120.738Z" fill="#69E0FF" stroke="#282828"></path><path d="M51.0809 118.786L38.655 130.904L43.4695 134.3L40.535 142.975L48.3756 144.949L50.3473 134.3L54.6574 134.805L51.0809 118.786Z" stroke="#282828"></path><path d="M41.9334 52.3252L10.7874 74.2705L21.0132 90.2024" stroke="#69E0FF" stroke-linecap="round"></path><path d="M58.0527 75.7013L89.438 52.7802L57.6522 13.835L35.4556 30.0453L34.1179 41.6142L58.0527 75.7013Z" stroke="#282828"></path><path d="M98.2432 49.0163L63.4107 74.4545L36.2424 35.8077L37.562 22.6271L62.1626 4.66113L98.2432 49.0163Z" fill="#FEDFC1"></path><path d="M37.5621 22.5703L36.2351 35.7687L44.8998 28.8962L37.5621 22.5703Z" fill="#282828"></path><path d="M1 97.9136L109.382 18.7617L120.473 33.9638L10.7361 114.106L1 97.9136Z" fill="#282828"></path><path d="M82.0959 85.3993L115.076 62.9073M65.8591 85.3993L112.071 54.9023L65.8591 85.3993Z" stroke="#282828" stroke-linecap="round"></path><path d="M62.046 194.602L44.146 206.603M65.3141 186.465L40.7429 203.486L65.3141 186.465Z" stroke="#282828" stroke-linecap="round"></path><path d="M15.3743 103.177C17.1502 101.88 17.5389 99.388 16.2426 97.6112C14.9463 95.8345 12.4558 95.4456 10.6799 96.7425C8.904 98.0394 8.51524 100.531 9.81156 102.308C11.1079 104.085 13.5984 104.474 15.3743 103.177Z" fill="white"></path><path d="M24.5794 96.4539C26.3553 95.157 26.744 92.6653 25.4477 90.8886C24.1514 89.1119 21.6608 88.7229 19.885 90.0199C18.1091 91.3168 17.7203 93.8085 19.0166 95.5852C20.313 97.3619 22.8035 97.7509 24.5794 96.4539Z" fill="white"></path><path d="M33.7847 89.7322C35.5606 88.4353 35.9493 85.9436 34.653 84.1669C33.3567 82.3902 30.8662 82.0012 29.0903 83.2982C27.3144 84.5951 26.9256 87.0868 28.222 88.8635C29.5183 90.6402 32.0088 91.0292 33.7847 89.7322Z" fill="white"></path><path d="M49.2711 217.946C46.3205 205.25 32.7836 181.771 28.7065 189.067C23.61 198.187 25.577 224.294 32.4617 225.814C39.3465 227.333 29.3324 189.246 20.7488 191.928C13.882 194.074 17.8876 205.22 20.7488 210.525C19.7355 203.372 18.4337 193.359 4.38647 186.653" stroke="#69E0FF" stroke-linecap="round"></path><path d="M50.2078 34.9232L64.5013 24.4453L74.3744 37.9267L59.3408 49.2802L50.2078 34.9232Z" fill="#282828"></path><path d="M65.8376 9.31598C67.2024 8.40608 67.8269 6.94517 67.2326 6.05293C66.6383 5.16069 65.0502 5.17501 63.6854 6.08491C62.3207 6.9948 61.6961 8.45572 62.2904 9.34796C62.8847 10.2402 64.4729 10.2259 65.8376 9.31598Z" fill="#282828"></path><path d="M68.6482 13.1431C70.0129 12.2332 70.6375 10.7723 70.0432 9.88007C69.4489 8.98784 67.8607 9.00216 66.496 9.91205C65.1312 10.822 64.5067 12.2829 65.101 13.1751C65.6953 14.0673 67.2834 14.053 68.6482 13.1431Z" fill="#282828"></path><path d="M71.8483 16.5006C73.2131 15.5907 73.8377 14.1297 73.2434 13.2375C72.649 12.3453 71.0609 12.3596 69.6962 13.2695C68.3314 14.1794 67.7069 15.6403 68.3012 16.5325C68.8955 17.4248 70.4836 17.4105 71.8483 16.5006Z" fill="#282828"></path><path d="M74.6584 20.3287C76.0232 19.4188 76.6477 17.9579 76.0534 17.0656C75.4591 16.1734 73.871 16.1877 72.5062 17.0976C71.1415 18.0075 70.5169 19.4684 71.1112 20.3607C71.7055 21.2529 73.2937 21.2386 74.6584 20.3287Z" fill="#282828"></path><path d="M77.4687 23.9205C78.8335 23.0106 79.458 21.5497 78.8637 20.6574C78.2694 19.7652 76.6813 19.7795 75.3166 20.6894C73.9518 21.5993 73.3272 23.0602 73.9215 23.9525C74.5159 24.8447 76.104 24.8304 77.4687 23.9205Z" fill="#282828"></path><path d="M80.2788 27.7466C81.6435 26.8367 82.2681 25.3758 81.6738 24.4836C81.0795 23.5914 79.4914 23.6057 78.1266 24.5156C76.7619 25.4255 76.1373 26.8864 76.7316 27.7786C77.3259 28.6709 78.914 28.6565 80.2788 27.7466Z" fill="#282828"></path><path d="M83.4795 31.105C84.8442 30.1951 85.4688 28.7342 84.8745 27.842C84.2802 26.9498 82.692 26.9641 81.3273 27.874C79.9625 28.7839 79.338 30.2448 79.9323 31.137C80.5266 32.0293 82.1147 32.0149 83.4795 31.105Z" fill="#282828"></path><path d="M86.2895 34.9322C87.6543 34.0223 88.2788 32.5614 87.6845 31.6691C87.0902 30.7769 85.5021 30.7912 84.1374 31.7011C82.7726 32.611 82.148 34.0719 82.7423 34.9642C83.3367 35.8564 84.9248 35.8421 86.2895 34.9322Z" fill="#282828"></path><path d="M95.4566 148.828L114.579 173.264L41.27 219.141L10.6038 172.396L34.869 154.674" stroke="#282828"></path><path d="M10.095 172.766L35.1435 154.474L43.6116 168.963L19.2899 186.027L10.095 172.766Z" fill="#282828"></path><path d="M22.1312 178.44C23.6089 177.361 23.9324 175.287 22.8537 173.809C21.775 172.33 19.7026 172.007 18.2248 173.086C16.747 174.165 16.4235 176.239 17.5023 177.717C18.581 179.195 20.6534 179.519 22.1312 178.44Z" fill="white"></path><path d="M29.7913 172.845C31.2691 171.766 31.5926 169.693 30.5139 168.214C29.4352 166.736 27.3627 166.412 25.885 167.491C24.4072 168.57 24.0837 170.644 25.1624 172.122C26.2411 173.601 28.3136 173.924 29.7913 172.845Z" fill="white"></path><path d="M37.4513 167.251C38.929 166.172 39.2525 164.099 38.1738 162.62C37.0951 161.142 35.0227 160.818 33.5449 161.897C32.0671 162.977 31.7436 165.05 32.8223 166.529C33.901 168.007 35.9735 168.331 37.4513 167.251Z" fill="white"></path><path d="M138.65 14.2522C145.083 16.1578 146.691 24.8604 146.691 28.9736L134.24 48.9665C131.442 49.2528 123.913 48.7947 116.169 44.6711C108.425 40.5476 115.102 35.3255 119.409 33.2299C120.67 32.3057 122.664 28.7783 120.54 22.062C118.417 15.3456 112.214 14.89 109.378 15.5018C107.608 15.7491 104.725 15.369 107.348 11.8703C112.656 5.1539 123.975 7.97838 128.971 10.2302C131.594 9.23059 135.267 12.4951 136.777 14.2522H138.65Z" fill="#FF9F59"></path><path d="M87.3157 194.79L53.7987 151.547C52.3516 149.022 52.7454 146.418 57.2801 148.524C59.6991 149.647 61.3504 150.762 61.6101 151.105L56.9852 144.308C55.5277 141.393 57.4719 137.996 61.7619 141.397C62.7932 142.193 63.9598 143.435 64.4142 143.957L62.1614 139.844C60.4097 136.357 61.9398 132.125 66.6249 135.362C69.3489 137.3 70.9035 138.892 73.5129 142.048L70.9561 135.041C70.8677 132.811 71.6237 129.185 75.3541 132.531C79.0843 135.876 89.0807 151.246 90.6192 153.629C91.029 153.754 90.9674 154.337 91.193 153.115C91.4755 151.586 91.6106 143.341 92.463 140.027C92.9524 138.123 94.5394 135.814 97.1201 141.226C99.7015 146.638 102.211 167.986 103.622 170.227C104.681 171.909 107.491 176.504 107.907 176.76C107.924 176.757 107.941 176.755 107.957 176.752C107.952 176.775 107.935 176.777 107.907 176.76C104.652 177.259 94.8876 183.159 94.8876 183.159C94.8876 183.159 86.6491 188.159 87.3157 194.79Z" fill="#FF9F59"></path><path d="M61.7256 151.404L70.9731 163.292" stroke="#282828" stroke-linecap="round"></path><path d="M64.7554 144.346L74.0029 156.234" stroke="#282828" stroke-linecap="round"></path><path d="M73.353 141.812L82.6008 153.7" stroke="#282828" stroke-linecap="round"></path><path d="M148.642 29.1688C132.531 28.6065 132.328 45.7254 134.24 54.3552C135.183 58.6115 174.168 78.7996 174.558 81.3378C174.871 83.3683 169.875 93.6904 167.338 98.5973C162.667 101.239 148.502 110.773 129.205 127.767C109.909 144.761 108.467 165.8 110.159 174.195C109.677 172.386 107.708 168.408 103.68 166.971C98.6447 165.175 95.4052 164.472 86.4283 171.306C79.2467 176.773 78.3881 184.387 78.8564 187.511L83.1888 192.548C91.3328 203.456 108.917 225.779 114.101 227.809C120.58 230.347 130.649 228.512 134.24 225.271C137.113 222.678 140.485 208.363 141.812 201.529L145.754 216.993C168.04 223.826 195.4 210.511 197.547 207.66C199.694 204.81 214.096 198.991 218.428 195.789C221.894 193.228 224.92 184.621 226 180.638C223.593 171.644 217.843 151.711 214.096 143.933C209.412 134.21 210.856 72.708 207.617 68.0222C205.025 64.2735 192.876 53.4961 187.126 48.576C182.481 45.3349 172.521 43.3434 167.338 39.5948C160.859 34.9089 155.824 31.3165 148.642 29.1688Z" fill="#194866"></path><path d="M160.117 34.5586C157.97 37.5653 156.62 46.5778 160.117 50.2952C164.488 54.942 182.364 50.0609 187.009 57.0116C190.724 62.5721 201.957 66.5394 204.26 64.2356M163.239 73.5682C165.854 68.6871 190.342 70.663 190.873 75.9111C191.536 82.4713 184.247 79.5262 178.539 84.3456C176.649 85.9419 172.529 92.3896 170.811 91.5696M133.42 46.9761C136.387 46.9761 142.24 50.6623 142.632 55.5668C142.788 57.5343 141.968 60.0574 141.656 60.5259M209.88 92.1163C205.47 92.1163 204.099 104.129 198.328 115.585C191.727 128.685 173.582 139.365 178.11 154.946C182.471 169.954 215.54 161.389 220.106 160.49M220.028 194.15C218.038 192.393 218.053 185.653 211.715 183.217C203.792 180.171 196.726 185.988 187.009 186.263C174.398 186.619 160.117 181.694 154.848 183.217C150.633 184.435 151.27 191.43 152.116 194.775C155.394 201.452 169.25 213.714 170.148 218.009M107.739 222.461C110.861 219.532 113.146 207.595 121.126 206.919C129.108 206.244 133.381 218.634 136.933 220.001M87.8723 170.214C89.3554 172.127 82.853 177.375 85.2572 183.217C88.2626 190.519 97.5759 192.285 98.6056 200.867C99.0692 204.736 98.6056 209.965 97.5127 210.785M145.129 125.542C150.424 127.442 162.24 129.853 167.142 124.292C172.045 118.732 169.679 111.953 167.884 109.259M123.234 146.277C130.303 142.064 142.194 141.122 145.129 145.496C148.798 150.963 162.346 161.567 163.2 163.458C167.221 172.361 160.82 178.375 141.734 173.181C126.465 169.026 121.912 187.468 115.037 179.273C111.022 174.487 110.681 170.05 112.617 163.458C114.553 156.867 116.664 150.191 123.234 146.277Z" stroke="#69E0FF"></path><path d="M110.314 175.562C109.56 181.902 108.503 195.157 110.314 197.469C112.125 199.78 112.994 204.654 113.203 206.801" stroke="#282828" stroke-linecap="round"></path><path d="M177.525 79.2562C178.735 75.5204 184.097 70.7279 186.814 70.5092C190.209 70.2359 199.421 67.8148 201.411 68.9472" stroke="#282828" stroke-linecap="round"></path><path d="M179.164 80.8793C181.234 79.6157 185.664 79.5228 187.016 80.5107C188.707 81.7454 193.969 84.3086 194.439 85.6378" stroke="#282828" stroke-linecap="round"></path><path d="M107.9 182.67C105.924 184.076 104.096 188.114 104.47 189.747C104.939 191.788 105.223 197.637 106.259 198.592" stroke="#282828" stroke-linecap="round"></path><path d="M108.91 100.199C108.91 102.083 108.405 103.767 107.614 104.966C106.822 106.169 105.779 106.837 104.694 106.837C103.608 106.837 102.566 106.169 101.773 104.966C100.982 103.767 100.479 102.083 100.479 100.199C100.479 98.3151 100.982 96.6305 101.773 95.4318C102.566 94.2283 103.608 93.5605 104.694 93.5605C105.779 93.5605 106.822 94.2283 107.614 95.4318C108.405 96.6305 108.91 98.3151 108.91 100.199Z" stroke="#282828"></path><path d="M120.697 117.535C129.535 117.535 136.699 110.368 136.699 101.526C136.699 92.6835 129.535 85.5156 120.697 85.5156C111.859 85.5156 104.694 92.6835 104.694 101.526C104.694 110.368 111.859 117.535 120.697 117.535Z" fill="#FF9F59"></path><path d="M125.575 108.867C128.701 108.867 131.235 106.332 131.235 103.205C131.235 100.078 128.701 97.543 125.575 97.543C122.45 97.543 119.916 100.078 119.916 103.205C119.916 106.332 122.45 108.867 125.575 108.867Z" fill="#FF9F59"></path><path d="M108.012 106.134C108.896 106.134 109.612 105.33 109.612 104.338C109.612 103.346 108.896 102.542 108.012 102.542C107.128 102.542 106.412 103.346 106.412 104.338C106.412 105.33 107.128 106.134 108.012 106.134Z" fill="#FF9F59"></path><path d="M121.711 102.541C122.609 101.643 124.6 100.745 125.966 100.745" stroke="#282828" stroke-linecap="round"></path><path d="M124.365 101.046C124.661 101.502 125.284 103.003 125.38 104.025" stroke="#282828" stroke-linecap="round"></path><path d="M103.031 90.0381L117.79 96.9958L120.033 102.854C119.967 101.602 121.127 98.5945 124.118 98.122C127.856 97.5323 130.366 103.625 128.039 106.67C126.177 109.105 123.586 108.538 122.522 107.951L130.862 135.534L176.967 107.737C176.967 107.737 168.618 96.118 155.32 82.1581C141.926 68.0969 131.094 72.0231 127.033 75.0989C114.034 71.3676 105.615 83.5037 103.031 90.0381Z" fill="#1B1B1B"></path><path d="M100.479 100.043L121.126 98.0518" stroke="#282828"></path><path d="M131.859 115.935C131.859 121.477 127.368 125.97 121.828 125.97C116.288 125.97 111.798 121.477 111.798 115.935C111.798 110.392 116.288 105.899 121.828 105.899" stroke="#282828"></path><path d="M95.2879 58.8458L93.6096 45.374L109.339 51.8171L95.2879 58.8458Z" fill="#282828"></path><path d="M130.65 7.66002L114.757 0L93.4622 44.2257L94.3091 51.536L95.1553 48.7327L96.0686 52.8328L99.0739 50.1775L98.0591 53.4185L103.406 52.8328L102.256 55.3661L109.356 51.8857L130.65 7.66002Z" fill="#FEDFC1"></path><path d="M98.1763 43.9686L117.379 4.95898" stroke="#282828" stroke-linecap="round"></path><path d="M102.196 45.4139L121.399 6.4043" stroke="#282828" stroke-linecap="round"></path><path d="M106.256 47.8348L125.458 8.8252" stroke="#282828" stroke-linecap="round"></path><path d="M109.144 32.3328C112.079 33.1762 116.637 33.5693 118.55 33.6604L114.061 43.1492C98.4103 34.2071 105.475 31.2784 109.144 32.3328Z" fill="#FF9F59"></path><path d="M203.831 122.014C203.831 125.392 204.598 131.985 208.004 131.985C211.41 131.985 216.164 125.392 216.164 122.014C216.164 118.635 213.403 115.896 209.998 115.896C206.592 115.896 203.831 118.635 203.831 122.014Z" fill="#69E0FF"></path><path d="M190.568 129.004C190.568 130.955 191.007 134.763 192.958 134.763C194.908 134.763 197.631 130.955 197.631 129.004C197.631 127.052 196.05 125.471 194.099 125.471C192.149 125.471 190.568 127.052 190.568 129.004Z" fill="#69E0FF"></path><path d="M200.395 141.324C200.395 143.276 200.834 147.083 202.785 147.083C204.736 147.083 207.458 143.276 207.458 141.324C207.458 139.373 205.877 137.791 203.927 137.791C201.976 137.791 200.395 139.373 200.395 141.324Z" fill="#69E0FF"></path><path d="M190.552 141.324C190.552 143.276 190.991 147.083 192.942 147.083C194.892 147.083 197.615 143.276 197.615 141.324C197.615 139.373 196.034 137.791 194.084 137.791C192.134 137.791 190.552 139.373 190.552 141.324Z" fill="#69E0FF"></path><path d="M180.725 141.324C180.725 143.276 181.165 147.083 183.115 147.083C185.065 147.083 187.788 143.276 187.788 141.324C187.788 139.373 186.207 137.791 184.257 137.791C182.306 137.791 180.725 139.373 180.725 141.324Z" fill="#69E0FF"></path><path d="M200.271 153.645C200.271 155.596 200.71 159.404 202.661 159.404C204.611 159.404 207.334 155.596 207.334 153.645C207.334 151.694 205.753 150.112 203.802 150.112C201.852 150.112 200.271 151.694 200.271 153.645Z" fill="#69E0FF"></path><path d="M49.0981 97.3393C49.0981 98.5638 48.8223 100.953 47.5983 100.953C46.3744 100.953 44.6658 98.5638 44.6658 97.3393C44.6658 96.1147 45.658 95.1221 46.882 95.1221C48.1059 95.1221 49.0981 96.1147 49.0981 97.3393Z" fill="#282828"></path><path d="M55.2746 97.3393C55.2746 98.5638 54.9988 100.953 53.7748 100.953C52.5509 100.953 50.8423 98.5638 50.8423 97.3393C50.8423 96.1147 51.8345 95.1221 53.0585 95.1221C54.2824 95.1221 55.2746 96.1147 55.2746 97.3393Z" fill="#282828"></path><path d="M61.4414 97.3393C61.4414 98.5638 61.1656 100.953 59.9416 100.953C58.7177 100.953 57.009 98.5638 57.009 97.3393C57.009 96.1147 58.0013 95.1221 59.2252 95.1221C60.4492 95.1221 61.4414 96.1147 61.4414 97.3393Z" fill="#282828"></path></svg> 